HIERARCHY
ROOT Hips
{
  OFFSET 5.72205e-005 65.662 3.42586
  CHANNELS 6 Xposition Yposition Zposition Zrotation Xrotation Yrotation
  JOINT Chest
  {
    OFFSET 0 8.7983 -4.7612
    CHANNELS 3 Zrotation Xrotation Yrotation
    JOINT Chest2
    {
      OFFSET 0 8.0291 0.4195
      CHANNELS 3 Zrotation Xrotation Yrotation
      JOINT Chest3
      {
        OFFSET 0 9.9351 -2.2114
        CHANNELS 3 Zrotation Xrotation Yrotation
        JOINT Neck
        {
          OFFSET 0 22.3885 -0.4656
          CHANNELS 3 Zrotation Xrotation Yrotation
          JOINT Head
          {
            OFFSET -0.0001 12.643 3.4389
            CHANNELS 3 Zrotation Xrotation Yrotation
            End Site
            {
              OFFSET 0.0001 17.6655 0.5274
            }
          }
        }
        JOINT LeftCollar
        {
          OFFSET 2.2603 21.606 7.4023
          CHANNELS 3 Zrotation Xrotation Yrotation
          JOINT LeftShoulder
          {
            OFFSET 13.5163 -1.1332 -5.0146
            CHANNELS 3 Zrotation Xrotation Yrotation
            JOINT LeftElbow
            {
              OFFSET -0.0995 -28.05 -0.2431
              CHANNELS 3 Zrotation Xrotation Yrotation
              JOINT LeftWrist
              {
                OFFSET 0.0679 -23.3996 -0.1402
                CHANNELS 3 Zrotation Xrotation Yrotation
                JOINT LeftFinger1
                {
                  OFFSET 0.7932 -9.069 2.5189
                  CHANNELS 3 Zrotation Xrotation Yrotation
                  JOINT LeftFinger11
                  {
                    OFFSET -0.8272 -3.3923 0.5977
                    CHANNELS 3 Zrotation Xrotation Yrotation
                    JOINT LeftFinger12
                    {
                      OFFSET -0.5649 -2.3158 0.4082
                      CHANNELS 3 Zrotation Xrotation Yrotation
                      End Site
                      {
                        OFFSET -0.4919 -1.6479 0.2673
                      }
                    }
                  }
                }
                JOINT LeftFinger2
                {
                  OFFSET 0.9159 -9.2044 0.2193
                  CHANNELS 3 Zrotation Xrotation Yrotation
                  JOINT LeftFinger21
                  {
                    OFFSET 0.0117 -4.1944 -0.0248
                    CHANNELS 3 Zrotation Xrotation Yrotation
                    JOINT LeftFinger22
                    {
                      OFFSET 0.0071 -2.3249 -0.0142
                      CHANNELS 3 Zrotation Xrotation Yrotation
                      End Site
                      {
                        OFFSET -0.1475 -2.0882 0.0028
                      }
                    }
                  }
                }
                JOINT LeftFinger3
                {
                  OFFSET 0.6113 -8.7231 -2.0637
                  CHANNELS 3 Zrotation Xrotation Yrotation
                  JOINT LeftFinger31
                  {
                    OFFSET -0.1927 -3.8059 -0.2383
                    CHANNELS 3 Zrotation Xrotation Yrotation
                    JOINT LeftFinger32
                    {
                      OFFSET -0.1091 -2.1688 -0.1362
                      CHANNELS 3 Zrotation Xrotation Yrotation
                      End Site
                      {
                        OFFSET -0.2358 -1.9176 -0.0906
                      }
                    }
                  }
                }
                JOINT LeftFinger4
                {
                  OFFSET -0.6151 -8.0947 -3.5641
                  CHANNELS 3 Zrotation Xrotation Yrotation
                  JOINT LeftFinger41
                  {
                    OFFSET -0.4882 -2.341 -0.6462
                    CHANNELS 3 Zrotation Xrotation Yrotation
                    JOINT LeftFinger42
                    {
                      OFFSET -0.3575 -1.7167 -0.4742
                      CHANNELS 3 Zrotation Xrotation Yrotation
                      End Site
                      {
                        OFFSET -0.4187 -1.5237 -0.3496
                      }
                    }
                  }
                }
                JOINT LeftFinger0
                {
                  OFFSET -1.42 -1.8761 1.4223
                  CHANNELS 3 Zrotation Xrotation Yrotation
                  JOINT LeftFinger01
                  {
                    OFFSET -1.1471 -3.4929 2.6334
                    CHANNELS 3 Zrotation Xrotation Yrotation
                    JOINT LeftFinger02
                    {
                      OFFSET -0.823 -2.3 1.6571
                      CHANNELS 3 Zrotation Xrotation Yrotation
                      End Site
                      {
                        OFFSET -0.5822 -1.6914 1.1582
                      }
                    }
                  }
                }
              }
            }
          }
        }
        JOINT RightCollar
        {
          OFFSET -2.2603 21.606 7.4023
          CHANNELS 3 Zrotation Xrotation Yrotation
          JOINT RightShoulder
          {
            OFFSET -13.5187 -1.1334 -5.0155
            CHANNELS 3 Zrotation Xrotation Yrotation
            JOINT RightElbow
            {
              OFFSET 0.0994 -28.0499 -0.2431
              CHANNELS 3 Zrotation Xrotation Yrotation
              JOINT RightWrist
              {
                OFFSET -0.0679 -23.3996 -0.1402
                CHANNELS 3 Zrotation Xrotation Yrotation
                JOINT RightFinger1
                {
                  OFFSET -0.7932 -9.0691 2.5189
                  CHANNELS 3 Zrotation Xrotation Yrotation
                  JOINT RightFinger11
                  {
                    OFFSET 0.8272 -3.3923 0.5977
                    CHANNELS 3 Zrotation Xrotation Yrotation
                    JOINT RightFinger12
                    {
                      OFFSET 0.565 -2.3158 0.4082
                      CHANNELS 3 Zrotation Xrotation Yrotation
                      End Site
                      {
                        OFFSET 0.4919 -1.6479 0.2673
                      }
                    }
                  }
                }
                JOINT RightFinger2
                {
                  OFFSET -0.916 -9.2044 0.2193
                  CHANNELS 3 Zrotation Xrotation Yrotation
                  JOINT RightFinger21
                  {
                    OFFSET -0.0117 -4.1944 -0.0248
                    CHANNELS 3 Zrotation Xrotation Yrotation
                    JOINT RightFinger22
                    {
                      OFFSET -0.0071 -2.3249 -0.0142
                      CHANNELS 3 Zrotation Xrotation Yrotation
                      End Site
                      {
                        OFFSET 0.1475 -2.0882 0.0028
                      }
                    }
                  }
                }
                JOINT RightFinger3
                {
                  OFFSET -0.6113 -8.7231 -2.0637
                  CHANNELS 3 Zrotation Xrotation Yrotation
                  JOINT RightFinger31
                  {
                    OFFSET 0.1927 -3.8059 -0.2383
                    CHANNELS 3 Zrotation Xrotation Yrotation
                    JOINT RightFinger32
                    {
                      OFFSET 0.1091 -2.1688 -0.1362
                      CHANNELS 3 Zrotation Xrotation Yrotation
                      End Site
                      {
                        OFFSET 0.2358 -1.9176 -0.0906
                      }
                    }
                  }
                }
                JOINT RightFinger4
                {
                  OFFSET 0.6151 -8.0947 -3.564
                  CHANNELS 3 Zrotation Xrotation Yrotation
                  JOINT RightFinger41
                  {
                    OFFSET 0.4882 -2.341 -0.6462
                    CHANNELS 3 Zrotation Xrotation Yrotation
                    JOINT RightFinger42
                    {
                      OFFSET 0.3574 -1.7166 -0.4742
                      CHANNELS 3 Zrotation Xrotation Yrotation
                      End Site
                      {
                        OFFSET 0.4187 -1.5237 -0.3496
                      }
                    }
                  }
                }
                JOINT RightFinger0
                {
                  OFFSET 1.4199 -1.8761 1.4221
                  CHANNELS 3 Zrotation Xrotation Yrotation
                  JOINT RightFinger01
                  {
                    OFFSET 1.1472 -3.4929 2.6336
                    CHANNELS 3 Zrotation Xrotation Yrotation
                    JOINT RightFinger02
                    {
                      OFFSET 0.8229 -2.3 1.6571
                      CHANNELS 3 Zrotation Xrotation Yrotation
                      End Site
                      {
                        OFFSET 0.5822 -1.6914 1.1582
                      }
                    }
                  }
                }
              }
            }
          }
        }
      }
    }
  }
  JOINT RightHip
  {
    OFFSET -9.412 3.9771 -0.7758
    CHANNELS 3 Zrotation Xrotation Yrotation
    JOINT RightKnee
    {
      OFFSET -0.7531 -40.938 0
      CHANNELS 3 Zrotation Xrotation Yrotation
      JOINT RightAnkle
      {
        OFFSET 0 -40.1986 0
        CHANNELS 3 Zrotation Xrotation Yrotation
        JOINT RightToe
        {
          OFFSET 0 -4.4182 9.239
          CHANNELS 3 Zrotation Xrotation Yrotation
          End Site
          {
            OFFSET 0 0 6.1981
          }
        }
      }
    }
  }
  JOINT LeftHip
  {
    OFFSET 9.4119 3.9773 -0.7758
    CHANNELS 3 Zrotation Xrotation Yrotation
    JOINT LeftKnee
    {
      OFFSET 0.7532 -40.9383 0
      CHANNELS 3 Zrotation Xrotation Yrotation
      JOINT LeftAnkle
      {
        OFFSET 0 -40.1986 0
        CHANNELS 3 Zrotation Xrotation Yrotation
        JOINT LeftToe
        {
          OFFSET 0 -4.4182 9.239
          CHANNELS 3 Zrotation Xrotation Yrotation
          End Site
          {
            OFFSET 0 0 6.1981
          }
        }
      }
    }
  }
}
MOTION
Frames:	4
Frame Time:	0.0333333
0.825572 63.3832 26.1029 6.39816e-008 28.1254 1.41724e-007 0.380494 -1.65975 -0.437911 0.748753 -3.32236 -0.865329 0.748752 -3.32235 -0.865327 16.244 1.61995 8.97755 -1.20808e-006 1.67988 -8.3337e-007 -23.0951 35.2325 -21.1266 52.1857 -21.2082 78.8688 -105.037 0.228136 9.05126 28.2716 -49.4696 -98.1904 1.59028e-015 0 -3.18055e-015 -1.59028e-015 3.18055e-015 3.97569e-015 6.36111e-015 6.36111e-015 -3.18055e-015 1.59028e-015 0 -3.18055e-015 -0.0128507 0.00233281 8.30549e-005 -4.41391e-031 -6.36111e-015 -3.97569e-015 1.59028e-015 0 -3.18055e-015 -0.0160156 0.00299306 0.00085278 1.59028e-015 6.36111e-015 7.95139e-016 1.59028e-015 0 -3.18055e-015 -0.0125817 0.00313892 0.00282997 1.59028e-015 3.18055e-015 3.18055e-015 1.59028e-015 0 -3.18055e-015 -1.59028e-015 3.18055e-015 3.97569e-015 6.36111e-015 6.36111e-015 -3.18055e-015 21.088 35.1046 13.0186 -49.2736 -23.5653 -75.33 107.078 2.14131 -7.61311 -29.9721 -44.3342 97.7405 6.36111e-015 -6.36111e-015 -3.18055e-015 7.95139e-015 0 4.77083e-015 6.36111e-015 0 6.36111e-015 6.36111e-015 -6.36111e-015 -3.18055e-015 0.0128726 0.00230309 -8.72797e-005 0 0 -0 6.36111e-015 -6.36111e-015 -3.18055e-015 0.0163226 0.00302244 -0.000871761 -1.76556e-031 -3.18055e-015 -3.18055e-015 6.36111e-015 -6.36111e-015 -3.18055e-015 0.0145725 0.00368109 -0.00326529 3.18055e-015 -9.54166e-015 2.38542e-015 6.36111e-015 -6.36111e-015 -3.18055e-015 7.95139e-015 0 4.77083e-015 6.36111e-015 0 6.36111e-015 -28.0584 -47.8808 -33.0173 5.51752 31.9144 -5.12994 -5.58596 4.82459 -8.61511 -2.46162e-006 4.11203e-007 -3.23297e-007 27.3057 -48.3073 34.4516 -5.58369 33.2982 5.41678 7.27583 3.04316 7.18866 6.05837e-006 2.76232e-006 3.59837e-006 
0.825598 63.3881 25.8572 -3.24824e-009 28.7528 6.75265e-009 0.3823 -1.84046 -0.434951 0.751181 -3.68373 -0.85826 0.751183 -3.68374 -0.858262 16.1488 1.12878 9.06408 2.78354e-006 0.616675 3.08549e-007 -23.101 35.3597 -21.0215 52.1858 -21.2081 78.8688 -105.225 0.255993 9.04269 28.685 -49.4755 -97.9644 -1.59028e-015 6.36111e-015 1.59028e-015 -5.29669e-031 9.54166e-015 3.18055e-015 -5.41958e-006 1.32178e-005 4.03545e-006 -1.59028e-015 6.36111e-015 1.59028e-015 -0.0129044 0.00233316 9.41229e-005 -4.89173e-006 8.39403e-006 -3.3814e-006 -1.59028e-015 6.36111e-015 1.59028e-015 -0.0160532 0.00299037 0.000853005 -8.55767e-006 1.92102e-005 4.83621e-007 -1.59028e-015 6.36111e-015 1.59028e-015 -0.0126526 0.00313234 0.00284187 -1.42147e-006 2.73142e-006 -1.68981e-006 -1.59028e-015 6.36111e-015 1.59028e-015 -5.29669e-031 9.54166e-015 3.18055e-015 -5.41958e-006 1.32178e-005 4.03545e-006 21.0933 35.2305 12.9095 -49.2736 -23.5653 -75.33 107.078 2.14133 -7.61306 -29.9722 -44.3342 97.7404 5.92161e-006 2.24326e-005 -5.75603e-006 3.18055e-015 0 -5.56597e-015 6.82281e-006 -6.89167e-006 7.6361e-006 5.92161e-006 2.24326e-005 -5.75603e-006 0.0129818 0.00231549 -8.55304e-005 -1.95557e-007 1.31958e-006 3.40577e-006 5.92161e-006 2.24326e-005 -5.75603e-006 0.0163543 0.00303329 -0.000867977 4.64187e-006 -1.81422e-006 -1.30359e-006 5.92161e-006 2.24326e-005 -5.75603e-006 0.0145246 0.00365592 -0.00324162 1.97992e-006 2.86755e-006 3.78689e-006 5.92161e-006 2.24326e-005 -5.75603e-006 3.18055e-015 0 -5.56597e-015 6.82281e-006 -6.89167e-006 7.6361e-006 -28.3552 -48.588 -33.2387 5.52285 31.9401 -5.1373 -5.56046 5.00789 -8.81725 -2.85985e-006 3.15003e-006 1.12575e-006 27.6069 -49.0201 34.6954 -5.58828 33.3214 5.42401 7.26661 3.22501 7.36421 -7.95139e-016 -4.77083e-015 -0 
0.825634 63.3939 25.6115 1.46441e-007 29.3801 -1.03073e-007 0.3841 -2.02113 -0.431966 0.753638 -4.04507 -0.851154 0.753638 -4.04507 -0.851154 16.0543 0.63735 9.1498 4.45258e-006 -0.447618 3.7464e-007 -23.1072 35.487 -20.9162 52.1858 -21.2081 78.8688 -105.412 0.283965 9.03433 29.0982 -49.4804 -97.7385 1.59028e-015 -6.36111e-015 4.77083e-015 -1.59028e-015 -9.54166e-015 1.59028e-015 -4.77083e-015 -9.54166e-015 7.95139e-016 1.59028e-015 -6.36111e-015 4.77083e-015 -0.0128532 0.00232846 8.65283e-005 -5.52994e-007 -4.95199e-006 2.63183e-006 1.59028e-015 -6.36111e-015 4.77083e-015 -0.0160202 0.0029936 0.00085524 1.52024e-006 -4.25398e-009 6.13368e-007 1.59028e-015 -6.36111e-015 4.77083e-015 -0.0126394 0.00314337 0.002843 3.18055e-015 3.18055e-015 2.38542e-015 1.59028e-015 -6.36111e-015 4.77083e-015 -1.59028e-015 -9.54166e-015 1.59028e-015 -4.77083e-015 -9.54166e-015 7.95139e-016 21.0989 35.3564 12.8002 -49.2736 -23.5653 -75.3301 107.078 2.14131 -7.61309 -29.9722 -44.3342 97.7404 -4.77083e-015 0 4.77083e-015 -1.59028e-015 3.18055e-015 4.77083e-015 4.41391e-031 -3.18055e-015 7.95139e-015 -4.77083e-015 0 4.77083e-015 0.0129235 0.00232532 -9.49833e-005 -3.18055e-015 0 -3.18055e-015 -4.77083e-015 0 4.77083e-015 0.0163423 0.00305142 -0.000873426 0 0 -1.59028e-015 -4.77083e-015 0 4.77083e-015 0.0145737 0.00367891 -0.00326918 4.77083e-015 0 7.95139e-016 -4.77083e-015 0 4.77083e-015 -1.59028e-015 3.18055e-015 4.77083e-015 4.41391e-031 -3.18055e-015 7.95139e-015 -28.6624 -49.293 -33.4705 5.53025 31.9656 -5.14468 -5.53437 5.19091 -9.01955 1.73008e-008 2.26526e-008 3.01567e-006 27.9165 -49.7321 34.9479 -5.59259 33.3447 5.43132 7.25689 3.40675 7.53983 1.64175e-006 -3.41669e-007 2.10292e-007 
0.825673 63.4007 25.3659 2.52378e-007 30.0074 -2.96455e-007 0.385895 -2.20175 -0.428959 0.756105 -4.40627 -0.84399 0.756108 -4.40627 -0.843993 15.9606 0.145535 9.23473 6.82351e-006 -1.51284 2.00226e-006 -23.1136 35.614 -20.8109 52.1857 -21.2081 78.8688 -105.599 0.311984 9.02594 29.5116 -49.4841 -97.5125 -1.51995e-006 -3.23989e-007 2.78653e-006 7.95139e-015 1.59028e-014 7.15625e-015 6.36111e-015 9.54166e-015 3.18055e-015 -1.51995e-006 -3.23989e-007 2.78653e-006 -0.0127869 0.00231364 9.1614e-005 1.59028e-015 9.54166e-015 1.59028e-015 -1.51995e-006 -3.23989e-007 2.78653e-006 -0.0160474 0.00300368 0.000866667 1.59028e-015 0 1.59028e-015 -1.51995e-006 -3.23989e-007 2.78653e-006 -0.0125327 0.00312088 0.00282472 1.59028e-015 0 3.18055e-015 -1.51995e-006 -3.23989e-007 2.78653e-006 7.95139e-015 1.59028e-014 7.15625e-015 6.36111e-015 9.54166e-015 3.18055e-015 21.1048 35.4822 12.6907 -49.2736 -23.5653 -75.33 107.078 2.14129 -7.61309 -29.9721 -44.3342 97.7405 6.36111e-015 0 -0 1.59028e-015 -3.18055e-015 -1.59028e-015 3.18055e-015 -9.54166e-015 -1.59028e-015 6.36111e-015 0 -0 0.0129117 0.0023099 -8.20217e-005 -1.59028e-015 0 3.97569e-015 6.36111e-015 0 -0 0.0163314 0.00302925 -0.00087012 -1.59028e-015 3.18055e-015 -8.74653e-015 6.36111e-015 0 -0 0.0145904 0.00366187 -0.00325829 1.59028e-015 3.18055e-015 -3.18055e-015 6.36111e-015 0 -0 1.59028e-015 -3.18055e-015 -1.59028e-015 3.18055e-015 -9.54166e-015 -1.59028e-015 -28.9774 -49.998 -33.7107 5.53671 31.9918 -5.15218 -5.50772 5.3736 -9.22205 8.19859e-007 -4.39567e-007 1.11776e-007 28.2396 -50.4414 35.2134 -5.60015 33.3685 5.43873 7.24674 3.58792 7.71557 -2.03516e-006 2.69244e-008 1.24239e-006 
